<svg xmlns="http://www.w3.org/2000/svg" width="49.947" height="65.752" viewBox="0 0 49.947 65.752">
  <g id="holding-wrench" transform="translate(0 0)">
    <g id="Group_69828" data-name="Group 69828" transform="translate(0 0)">
      <path id="Path_58320" data-name="Path 58320" d="M105.453,24.728h-3.022l.626-1.871a.963.963,0,0,0-1.827-.611l-.831,2.483H94.215l2.842-8.495a9.986,9.986,0,0,0,5.651,1.593l-.43,1.286a.963.963,0,1,0,1.827.611l.733-2.192a8.606,8.606,0,0,0,4.274-14.323.964.964,0,0,0-1.627.341l-2.246,6.713-3.318.675L99.677,8.4l2.387-7.133A.963.963,0,0,0,101.081,0a8.663,8.663,0,0,0-5.624,14.944l-1.774,5.3C80.5,20.568,82.21,25.726,73.813,26.8a2.585,2.585,0,0,0-2.53-2.071H64.116a2.584,2.584,0,0,0-2.581,2.581V44.337a2.584,2.584,0,0,0,2.581,2.581h7.167a2.583,2.583,0,0,0,2.559-2.261c4.42.293,4.8,1.785,10.941,2.195l-.39,1.165a8.624,8.624,0,0,0-5.305,14.527.964.964,0,0,0,1.628-.341l2.246-6.713,3.318-.675,2.244,2.536-2.386,7.133a.964.964,0,0,0,.983,1.266A8.635,8.635,0,0,0,93.442,51.6l1.582-4.727h5.049a3.489,3.489,0,0,0,3-5.27,3.492,3.492,0,0,0,1.794-5.054,3.492,3.492,0,0,0,1.794-5.054,3.49,3.49,0,0,0-1.208-6.765ZM99.727,2.181,97.674,8.318a.963.963,0,0,0,.192.944l2.981,3.369a.965.965,0,0,0,.913.306l4.408-.9a.963.963,0,0,0,.721-.638l1.825-5.456a6.639,6.639,0,0,1,.512,5.335c-1.985,5.933-10.683,6.146-13.7.568A6.625,6.625,0,0,1,99.727,2.181ZM93.186,59.227a6.811,6.811,0,0,1-4.713,4.345l2.053-6.137a.963.963,0,0,0-.192-.944l-2.981-3.369a.964.964,0,0,0-.913-.306l-4.408.9a.963.963,0,0,0-.721.638l-1.825,5.456c-3.045-5.561,2.448-11.665,8.8-9.541A7.245,7.245,0,0,1,93.186,59.227Zm-6.74-11.278.344-1.029s.806-.049,6.2-.049l-1.073,3.206A10.014,10.014,0,0,0,86.447,47.948Zm19.006-18.166H93.881a.963.963,0,0,0,0,1.927h9.779a1.564,1.564,0,0,1,0,3.128H93.881a.963.963,0,0,0,0,1.927h7.985a1.564,1.564,0,1,1,0,3.128H93.881a.963.963,0,0,0,0,1.927h6.191a1.564,1.564,0,0,1,0,3.127c-.063,0-11.7,0-11.763,0a25.722,25.722,0,0,1-9.932-1.373,18.166,18.166,0,0,0-4.513-.847v-9.8a.963.963,0,0,0-1.927,0V44.337a.655.655,0,0,1-.654.654H64.116a.655.655,0,0,1-.654-.654V27.309a.655.655,0,0,1,.654-.654h7.167a.655.655,0,0,1,.654.654v2.663a.963.963,0,0,0,1.927,0V28.736c9.073-1.031,7.288-6.079,19.167-6.539l-1.067,3.189a.963.963,0,0,0,.913,1.269h12.576a1.564,1.564,0,1,1,0,3.128Z" transform="translate(-61.535 0)" fill="#0244b5"/>
    </g>
  </g>
</svg>
