<svg xmlns="http://www.w3.org/2000/svg" width="164.949" height="131.96" viewBox="0 0 164.949 131.96">
  <path id="Icon_awesome-eye-slash" data-name="Icon awesome-eye-slash" d="M82.474,103.093a36.975,36.975,0,0,1-36.83-34.307L18.608,47.892A85.9,85.9,0,0,0,9.144,62.22a8.338,8.338,0,0,0,0,7.523c13.977,27.271,41.647,45.722,73.33,45.722a80.056,80.056,0,0,0,20.075-2.7L89.175,102.421a37.148,37.148,0,0,1-6.7.673Zm80.881,14.974L134.863,96.047A85.374,85.374,0,0,0,155.8,69.74a8.338,8.338,0,0,0,0-7.523C141.827,34.946,114.157,16.5,82.474,16.5A79.42,79.42,0,0,0,44.5,26.212L11.716.869a4.124,4.124,0,0,0-5.789.724L.868,8.106a4.124,4.124,0,0,0,.724,5.786l151.639,117.2a4.124,4.124,0,0,0,5.789-.724l5.062-6.513a4.124,4.124,0,0,0-.727-5.786ZM116,81.47l-10.129-7.83A24.422,24.422,0,0,0,75.951,42.215a12.281,12.281,0,0,1,2.4,7.271,12.021,12.021,0,0,1-.4,2.577L58.982,37.4a36.678,36.678,0,0,1,23.492-8.533A37.093,37.093,0,0,1,119.587,65.98,36.233,36.233,0,0,1,116,81.472Z" transform="translate(0 0)" fill="#ababab"/>
</svg>
