<svg id="starter" xmlns="http://www.w3.org/2000/svg" width="58.164" height="61.799" viewBox="0 0 58.164 61.799">
  <path id="Path_58321" data-name="Path 58321" d="M101.219,15.29A22.951,22.951,0,0,1,96.234,1.039a1.039,1.039,0,1,0-2.077,0,25.035,25.035,0,0,0,5.437,15.546A27.565,27.565,0,0,1,105.582,33.7V51.475a8.241,8.241,0,0,1-16.09,2.518l1.064-.277a4.652,4.652,0,0,0,3.328-5.666L91.192,37.694A4.646,4.646,0,0,0,86.6,34.228L83.2,9.259a1.033,1.033,0,0,0-.295-.594L79.32,5.082a1.039,1.039,0,0,0-1.773.735V13.09a1.04,1.04,0,0,0,.284.714,1.813,1.813,0,0,1,0,2.513,1.04,1.04,0,0,0-.284.714v3.827a1.037,1.037,0,0,0,.388.809,2.123,2.123,0,1,1-2.794.119,1.039,1.039,0,0,0,.319-.749V17.042a1.042,1.042,0,0,0-.286-.717,1.816,1.816,0,0,1,0-2.529,1.041,1.041,0,0,0,.286-.717V5.816a1.039,1.039,0,0,0-1.835-.667l-3,3.583a1.038,1.038,0,0,0-.225.481L65.849,34.226A4.653,4.653,0,0,0,61.2,37.694L58.51,48.05a4.651,4.651,0,0,0,3.328,5.666l4.576,1.189a4.646,4.646,0,0,0,5.666-3.328l2.692-10.356a4.582,4.582,0,0,0-2.09-5.12l.622-2.488a6.61,6.61,0,0,0,5.787.008l.619,2.48a4.582,4.582,0,0,0-2.09,5.12l2.692,10.355a4.638,4.638,0,0,0,5.667,3.329l1.491-.387a10.324,10.324,0,0,0,20.189-3.043V33.7a29.652,29.652,0,0,0-6.441-18.412ZM72.763,40.7,70.071,51.055A2.57,2.57,0,0,1,66.937,52.9l-4.576-1.189a2.571,2.571,0,0,1-1.841-3.134l2.692-10.356a2.573,2.573,0,0,1,3.134-1.841l4.576,1.19a2.57,2.57,0,0,1,1.84,3.134Zm.374-9.5a1.04,1.04,0,0,0-1.531.645l-.881,3.526-2.837-.738,4.5-24.775.991-1.183V12.7a3.891,3.891,0,0,0,0,4.725v3.206a4.153,4.153,0,0,0-.977,2.689,4.206,4.206,0,0,0,8.413,0A4.163,4.163,0,0,0,79.625,20.4V17.409a3.886,3.886,0,0,0,0-4.7V8.324l1.563,1.562,3.372,24.73-2.89.752-.881-3.527a1.038,1.038,0,0,0-1.531-.645c-2.03,1.184-3.533,1.509-6.12,0ZM85.458,52.9a2.571,2.571,0,0,1-3.134-1.841L79.632,40.7a2.571,2.571,0,0,1,1.841-3.134l4.576-1.19a2.592,2.592,0,0,1,.651-.083,2.571,2.571,0,0,1,2.482,1.924l2.693,10.356a2.574,2.574,0,0,1-1.841,3.134l-1.747.454a1,1,0,0,0-.439.03,1.027,1.027,0,0,0-.3.161Zm0,0" transform="translate(-49.495 0)" fill="#ff8308"/>
  <path id="Path_58322" data-name="Path 58322" d="M61.835,28.783a1.039,1.039,0,0,0,1.469,0l.823-.824.824.824a1.038,1.038,0,0,0,1.469-1.469L65.6,26.49l.823-.824A1.038,1.038,0,0,0,64.951,24.2l-.824.824L63.3,24.2a1.039,1.039,0,1,0-1.469,1.469l.824.824-.824.824a1.038,1.038,0,0,0,0,1.469Zm0,0" transform="translate(-52.183 -20.258)" fill="#ff8308"/>
  <path id="Path_58323" data-name="Path 58323" d="M4.982,85.638a1.039,1.039,0,0,0-1.469,0l-.824.824-.824-.824A1.039,1.039,0,0,0,.4,87.107l.824.823L.4,88.754a1.038,1.038,0,1,0,1.469,1.469L2.69,89.4l.824.823a1.038,1.038,0,0,0,1.469-1.469l-.824-.824.824-.823a1.038,1.038,0,0,0,0-1.469Zm0,0" transform="translate(-0.093 -72.351)" fill="#ff8308"/>
</svg>
